<?xml version="1.0" standalone="no"?>
<!DOCTYPE svg PUBLIC "-//W3C//DTD SVG 20010904//EN"
 "http://www.w3.org/TR/2001/REC-SVG-20010904/DTD/svg10.dtd">
<svg version="1.0" xmlns="http://www.w3.org/2000/svg"
 width="1270.000000pt" height="772.000000pt" viewBox="0 0 1270.000000 772.000000"
 preserveAspectRatio="xMidYMid meet">

<g transform="translate(0.000000,772.000000) scale(0.100000,-0.100000)"
fill="#000000" stroke="none">
<path d="M6575 7273 c-93 -6 -220 -24 -270 -37 -27 -8 -88 -22 -135 -32 -47
-9 -89 -21 -95 -25 -5 -4 -35 -14 -66 -23 -54 -16 -127 -46 -159 -66 -25 -15
-179 -90 -186 -90 -4 0 -33 -21 -66 -47 -59 -48 -158 -180 -158 -212 0 -9 -6
-28 -14 -42 -7 -14 -21 -51 -31 -82 -10 -32 -21 -57 -25 -57 -4 0 -17 -21 -29
-47 -12 -27 -26 -55 -31 -63 -17 -27 -58 -124 -71 -170 -7 -25 -16 -49 -20
-55 -19 -27 -33 -143 -34 -271 l0 -141 52 -84 c67 -110 84 -172 88 -317 2 -64
8 -134 14 -156 11 -46 1 -79 -35 -113 -21 -19 -25 -30 -19 -51 9 -36 20 -48
73 -80 29 -16 58 -25 78 -24 28 2 36 -2 49 -27 l15 -30 -40 -11 c-22 -6 -40
-14 -40 -19 0 -4 -23 -31 -51 -60 l-52 -51 22 -56 c27 -71 27 -104 -1 -140
-12 -15 -23 -33 -24 -39 -3 -21 -56 -90 -75 -97 -42 -16 -91 23 -133 108 -28
56 -41 69 -108 107 -25 15 -68 44 -95 64 -48 37 -56 40 -205 59 -33 5 -60 1
-88 -10 -22 -9 -56 -16 -76 -16 -19 0 -36 -6 -38 -12 -17 -65 -22 -72 -63 -86
-25 -8 -43 -20 -43 -29 0 -23 70 -142 90 -153 10 -6 37 -10 58 -10 63 0 186
-27 232 -50 23 -12 68 -46 101 -76 32 -30 65 -54 72 -54 21 0 77 21 77 29 0 4
-25 19 -56 34 -44 22 -59 36 -74 70 -22 47 -25 109 -9 156 10 28 15 31 52 31
34 0 46 -6 78 -39 41 -44 84 -155 76 -197 -5 -29 18 -53 35 -36 7 7 16 12 20
12 12 0 9 -17 -5 -32 -8 -7 -17 -25 -20 -40 -5 -17 -25 -40 -55 -60 -54 -37
-102 -87 -102 -105 0 -7 3 -13 6 -13 13 0 71 45 115 89 25 25 54 53 65 61 10
9 31 30 45 47 36 43 108 93 134 93 30 0 51 -27 58 -75 13 -93 28 -167 36 -183
5 -9 15 -44 21 -77 7 -33 41 -119 76 -192 35 -73 64 -140 64 -149 0 -17 -22
-17 -160 1 -34 5 -34 5 -7 -6 15 -6 27 -17 27 -25 0 -19 -50 -18 -96 1 -30 12
-34 18 -29 37 4 16 3 19 -3 9 -6 -8 -12 -9 -16 -3 -6 10 -42 5 -61 -8 -5 -4
-28 -11 -50 -15 -22 -4 -49 -12 -60 -18 -18 -9 -16 -11 20 -21 29 -9 41 -17
43 -34 3 -18 -1 -22 -22 -22 -20 0 -223 -89 -246 -107 -8 -7 24 -23 48 -23 13
0 37 7 54 16 29 15 31 15 57 -10 36 -34 70 -33 105 3 24 25 27 35 22 65 -7 35
6 56 21 34 4 -7 8 -28 8 -47 0 -29 7 -39 42 -65 l43 -30 24 23 c29 28 56 22
56 -12 0 -34 -30 -57 -76 -57 -22 0 -50 -8 -63 -17 l-24 -16 28 -23 c26 -20
27 -23 12 -44 -8 -12 -25 -29 -37 -37 -19 -13 -23 -13 -45 1 -28 18 -60 20
-101 6 -29 -10 -29 -11 -27 -88 0 -42 8 -99 16 -126 12 -35 13 -55 6 -74 -13
-35 -3 -72 20 -72 25 0 47 29 55 73 6 32 11 38 29 35 15 -2 26 -16 38 -46 17
-48 64 -112 80 -112 6 0 24 -11 40 -25 16 -13 55 -32 87 -41 31 -9 72 -22 90
-30 39 -17 81 -18 118 -4 43 17 92 15 113 -4 12 -11 31 -16 53 -14 31 3 33 6
39 47 5 36 2 48 -18 72 -14 17 -23 38 -21 51 6 43 37 32 111 -39 40 -38 84
-78 98 -89 29 -22 51 -58 47 -77 -6 -32 14 -56 50 -63 56 -10 80 -29 109 -89
28 -57 56 -75 113 -75 18 0 33 -8 43 -24 19 -29 56 -40 64 -20 3 8 -1 21 -8
30 -17 20 -39 82 -39 110 0 12 -13 38 -30 59 -31 39 -40 78 -17 73 6 -1 40 4
75 11 34 8 86 11 115 9 46 -5 135 7 177 25 8 3 37 13 63 21 46 15 49 15 95 -7
26 -13 61 -23 77 -22 17 1 33 -3 37 -9 5 -8 13 -7 25 1 10 7 36 22 58 34 41
22 59 36 98 78 12 12 49 37 82 53 33 17 81 50 107 74 26 24 53 44 61 44 24 0
67 57 65 87 -2 15 3 28 11 31 7 2 21 13 29 23 21 25 31 24 71 -5 19 -14 46
-28 62 -31 15 -4 41 -21 57 -40 51 -58 102 -73 102 -31 0 13 -7 29 -15 36 -21
17 -19 27 16 81 32 51 54 117 71 212 8 51 7 60 -11 83 -12 15 -21 37 -21 48 0
15 -16 34 -45 56 -25 18 -47 42 -51 52 -3 10 -18 31 -34 46 -16 15 -40 49 -55
77 -18 35 -37 55 -67 70 -23 11 -46 28 -51 36 -7 12 3 57 38 165 26 81 54 184
61 227 8 43 18 86 24 97 14 27 12 56 -5 70 -8 7 -22 38 -31 68 l-16 56 -16
-29 c-9 -19 -14 -53 -14 -95 2 -93 -26 -145 -137 -251 -49 -48 -94 -97 -101
-109 -7 -13 -13 -58 -14 -101 -2 -86 -15 -108 -66 -109 -18 0 -47 -21 -95 -69
-39 -37 -76 -76 -83 -85 -8 -10 -28 -16 -58 -16 -39 0 -49 -5 -77 -36 -18 -20
-38 -48 -46 -63 -7 -14 -28 -48 -46 -76 -18 -27 -35 -59 -39 -70 -10 -29 -116
-110 -146 -111 -14 -1 -52 -4 -86 -8 -37 -5 -77 -3 -102 3 -30 9 -53 9 -85 0
-36 -9 -50 -8 -74 4 -30 16 -46 14 -128 -11 -40 -12 -102 11 -162 60 -25 21
-49 38 -54 38 -4 0 -20 15 -34 34 -18 24 -26 47 -27 77 0 28 -9 56 -24 79 -18
26 -44 113 -44 144 0 1 17 21 38 44 41 45 76 54 126 30 22 -9 29 -8 47 8 19
17 38 19 173 20 651 5 673 6 690 49 12 33 6 72 -16 92 -13 12 -54 33 -93 48
-56 21 -79 25 -121 19 -44 -5 -57 -3 -83 16 -42 32 -45 46 -16 88 46 68 34 82
-74 82 -57 0 -71 -4 -87 -21 -10 -12 -38 -30 -61 -41 -39 -17 -45 -18 -80 -3
-21 9 -47 28 -59 42 -19 24 -30 27 -100 32 l-79 6 -3 32 c-3 27 6 41 52 92 31
33 58 73 62 88 12 59 44 151 74 216 34 75 56 90 124 85 41 -3 41 -4 88 -93 26
-49 54 -113 62 -141 10 -30 33 -70 58 -99 41 -46 88 -133 88 -161 0 -16 122
-74 157 -74 13 0 33 5 43 10 11 6 54 15 97 20 43 6 112 23 153 39 41 17 96 37
121 46 77 27 97 51 119 135 13 51 19 106 18 172 0 63 3 103 11 112 10 12 6 23
-18 57 -36 50 -38 77 -10 136 12 24 18 50 15 58 -3 9 -25 24 -49 34 -26 11
-46 27 -49 39 -4 14 -16 21 -45 23 -78 8 -138 -20 -77 -35 25 -7 26 -8 10 -24
-15 -16 -20 -16 -62 0 -45 16 -45 16 -69 -8 -30 -30 -34 -30 -95 2 -27 14 -80
30 -119 36 -62 9 -78 8 -138 -11 -37 -12 -92 -24 -122 -28 -30 -3 -62 -14 -71
-23 -9 -9 -22 -50 -29 -91 -7 -40 -18 -80 -23 -86 -13 -17 -96 -16 -128 0 -28
14 -49 63 -49 118 -1 54 -21 74 -72 72 -23 -1 -75 7 -113 19 -44 12 -112 22
-176 25 -88 4 -115 9 -165 33 -33 15 -75 31 -93 35 -37 8 -126 -18 -157 -45
-32 -28 -62 -34 -69 -13 -19 61 5 253 32 253 4 0 28 16 51 37 35 30 50 36 86
35 23 0 56 -7 73 -16 33 -17 82 -21 97 -8 6 4 35 16 66 26 54 17 60 18 105 2
63 -21 82 -20 145 8 30 13 83 31 119 40 73 19 150 60 150 80 0 14 21 26 46 26
9 0 14 -11 14 -29 0 -21 6 -30 22 -34 25 -7 67 1 86 16 9 7 25 6 52 -3 34 -11
42 -11 63 3 25 16 52 21 100 19 20 -2 27 -7 27 -22 0 -10 -7 -23 -15 -27 -12
-7 -9 -12 14 -26 29 -17 30 -17 53 7 13 14 36 26 53 28 31 3 65 43 102 120 19
40 23 42 88 53 22 4 50 16 62 27 18 17 25 18 44 8 40 -22 132 -101 153 -133
12 -17 62 -67 111 -110 49 -44 100 -96 112 -116 32 -52 29 -121 -13 -258 -4
-17 -2 -23 9 -23 15 0 77 -64 77 -79 0 -17 30 -20 57 -6 15 8 53 20 83 26 71
16 83 25 76 62 -12 62 -37 70 -93 32 -20 -13 -39 -22 -43 -20 -4 2 -10 28 -13
56 -7 56 5 90 43 124 13 11 40 44 62 73 40 54 40 54 20 72 -31 30 -38 130 -20
280 24 185 60 280 164 420 62 85 68 108 69 260 0 135 0 135 -37 212 -50 107
-84 153 -192 262 -82 82 -100 96 -150 110 -53 16 -60 21 -96 79 -72 113 -92
138 -134 164 -68 43 -118 53 -275 54 -97 0 -164 6 -200 16 -84 23 -211 43
-261 41 -25 -1 -67 -3 -95 -5z m-755 -2332 c38 -11 4 -18 -60 -13 -40 3 -50 7
-35 13 24 9 61 9 95 0z m1333 -8 c-7 -2 -19 -2 -25 0 -7 3 -2 5 12 5 14 0 19
-2 13 -5z m-2343 -283 c24 -47 26 -97 4 -121 -21 -23 -44 -12 -74 36 -19 31
-20 39 -10 70 13 40 37 68 51 59 5 -3 18 -23 29 -44z m1295 -510 c20 -27 44
-54 53 -60 15 -8 15 -9 1 -10 -9 0 -22 7 -30 16 -10 13 -28 15 -96 10 -79 -4
-86 -7 -126 -41 -93 -82 -127 -127 -127 -166 0 -30 -21 -52 -46 -47 -26 5 -83
117 -84 164 0 46 50 133 78 135 10 1 28 3 42 5 14 2 61 6 105 8 44 3 96 12
115 20 59 26 75 21 115 -34z m127 -121 c47 -24 153 -25 206 -4 29 13 56 14
129 9 51 -4 93 -10 93 -15 0 -4 14 -21 30 -38 22 -21 27 -32 18 -37 -7 -4 -71
-11 -143 -16 -71 -4 -155 -10 -185 -14 -42 -5 -73 -1 -129 16 -62 19 -87 22
-157 16 -45 -3 -85 -2 -88 2 -10 17 27 54 83 81 60 31 81 31 143 0z m-692
-511 c11 -20 32 -48 46 -62 15 -13 23 -29 20 -35 -4 -6 -34 -11 -66 -11 -63 0
-97 19 -85 49 4 9 16 40 27 70 22 57 22 57 58 -11z m2072 15 c25 -28 61 -121
54 -139 -6 -15 -9 -15 -29 -2 -27 18 -65 73 -73 105 -12 48 18 70 48 36z
m-2382 -338 c0 -8 -4 -17 -10 -20 -6 -4 -10 5 -10 20 0 15 4 24 10 20 6 -3 10
-12 10 -20z"/>
<path d="M5207 5283 c-18 -17 -6 -60 23 -81 16 -12 32 -22 35 -22 12 0 3 48
-15 78 -20 32 -30 38 -43 25z"/>
<path d="M7945 5263 c-59 -7 -72 -13 -83 -38 -18 -39 7 -75 53 -75 7 0 18 14
25 31 7 17 23 37 36 46 20 13 24 46 5 42 -3 -1 -19 -4 -36 -6z"/>
<path d="M7983 4973 c-17 -6 -17 -66 -1 -61 10 4 26 70 16 67 -2 0 -9 -3 -15
-6z"/>
<path d="M4754 3918 c-32 -25 -45 -40 -39 -47 7 -7 54 28 65 49 14 25 9 25
-26 -2z"/>
<path d="M4187 3747 c-19 -18 -51 -42 -72 -53 -21 -10 -40 -24 -42 -30 -2 -6
17 -32 42 -57 49 -49 56 -72 25 -82 -11 -3 -20 -11 -20 -17 0 -5 -7 -7 -16 -4
-8 3 -12 2 -9 -4 3 -6 -10 -19 -29 -31 -21 -12 -36 -29 -36 -40 0 -10 -4 -19
-10 -19 -5 0 -10 -7 -10 -15 0 -9 -7 -18 -16 -22 -29 -11 -103 -92 -110 -120
-4 -15 -14 -38 -22 -50 -14 -23 -13 -23 27 -23 29 0 41 4 41 14 0 8 14 37 31
65 23 36 39 52 61 56 35 8 43 2 77 -62 24 -45 29 -48 71 -51 54 -4 68 -14 76
-58 8 -44 18 -50 87 -58 32 -3 68 -13 80 -20 27 -18 94 -36 167 -46 56 -8 101
-22 156 -48 27 -13 36 -13 80 0 27 9 68 21 92 27 43 12 53 25 27 35 -9 3 -15
18 -15 35 0 16 -4 33 -10 36 -17 11 -11 22 23 43 l33 19 -8 64 c-5 35 -9 76
-9 91 0 30 -39 68 -70 68 -28 0 -23 18 11 35 40 20 38 31 -10 55 -42 21 -95
26 -105 10 -10 -16 -53 -12 -63 6 -11 19 -76 43 -122 44 -19 0 -46 7 -60 15
-14 8 -43 14 -66 15 -31 0 -46 7 -69 30 -21 22 -26 33 -18 41 20 20 116 11
208 -19 85 -29 110 -33 141 -27 56 10 36 30 -30 30 -52 1 -59 3 -82 33 -21 26
-32 32 -65 32 -40 0 -51 14 -27 38 9 9 8 12 -5 12 -25 0 -67 -22 -67 -35 0
-12 -50 -25 -96 -25 -12 0 -37 -15 -56 -33 -33 -31 -101 -61 -112 -49 -3 3 -6
13 -6 22 0 9 -15 24 -32 34 -18 9 -26 15 -16 12 9 -3 24 4 34 15 12 14 30 19
65 19 55 0 61 6 50 46 -11 44 -52 45 -94 1z m136 -172 c20 -8 50 -15 67 -15
16 0 30 -5 30 -10 0 -6 12 -15 27 -21 22 -8 24 -12 13 -19 -17 -11 -48 -3 -68
16 -18 18 -66 18 -82 -1 -6 -8 -17 -33 -24 -55 -7 -23 -16 -42 -21 -43 -5 -1
-17 18 -26 43 -15 39 -15 49 -3 72 11 21 35 44 50 48 1 0 18 -7 37 -15z m294
-131 c-3 -3 -12 -4 -19 -1 -8 3 -5 6 6 6 11 1 17 -2 13 -5z"/>
<path d="M6111 3712 c-17 -32 17 -88 69 -114 40 -21 59 -23 180 -22 151 1 198
15 239 73 34 48 29 64 -21 58 -24 -3 -61 -10 -83 -16 -22 -6 -79 -11 -128 -11
-71 0 -99 5 -149 25 -73 30 -94 31 -107 7z"/>
<path d="M4880 3675 c-10 -12 -7 -15 15 -21 28 -7 52 7 41 25 -10 16 -41 14
-56 -4z"/>
<path d="M5106 3361 l-28 -29 37 -12 c31 -10 39 -10 56 6 33 30 20 64 -25 64
-7 0 -25 -13 -40 -29z"/>
<path d="M4110 3073 c0 -46 2 -51 20 -46 26 7 26 43 0 74 l-19 24 -1 -52z"/>
<path d="M4191 3031 c-12 -8 -10 -16 7 -50 l22 -42 -26 -9 c-35 -14 -71 -12
-77 3 -3 6 -6 -5 -6 -25 -1 -21 4 -38 9 -38 6 0 10 -9 10 -19 0 -11 -4 -23
-10 -26 -6 -4 -10 -100 -10 -256 l0 -249 28 0 c16 0 37 -9 47 -20 13 -14 31
-20 60 -20 26 0 48 -6 55 -15 7 -9 29 -15 54 -15 24 0 53 -8 71 -20 18 -12 47
-20 72 -20 23 0 54 -6 69 -12 25 -12 29 -10 60 26 23 26 34 50 34 70 0 17 9
45 20 61 11 17 20 44 20 61 0 17 7 37 15 44 8 7 15 29 15 50 0 22 8 48 20 63
15 18 20 40 20 80 0 48 -4 58 -26 76 -14 11 -42 23 -63 27 -20 3 -42 14 -49
23 -9 11 -36 18 -85 22 -40 3 -85 11 -102 17 -16 6 -42 14 -57 17 -17 3 -28
12 -28 21 0 12 6 15 23 9 12 -3 58 -10 102 -14 44 -5 91 -13 105 -19 102 -44
202 -53 208 -19 6 28 -34 64 -76 70 -21 2 -59 14 -84 26 -26 12 -67 21 -93 21
-26 0 -63 9 -85 20 -22 11 -59 20 -84 20 -59 0 -74 7 -92 41 -11 23 -21 29
-47 29 -17 0 -38 -4 -46 -9z"/>
<path d="M4965 3020 c4 -6 11 -8 16 -5 14 9 11 15 -7 15 -8 0 -12 -5 -9 -10z"/>
<path d="M7678 3011 c-1 -5 -21 -17 -43 -27 -26 -13 -41 -27 -43 -41 -2 -12
-12 -25 -22 -28 -11 -3 -29 -20 -41 -36 -19 -26 -20 -34 -9 -54 7 -13 10 -31
6 -40 -9 -24 -67 -44 -141 -49 -61 -3 -69 -7 -138 -59 -60 -46 -80 -56 -122
-59 -55 -5 -125 -21 -195 -45 -25 -8 -68 -18 -97 -23 -29 -4 -62 -15 -75 -24
-12 -9 -34 -16 -49 -16 -14 0 -38 -9 -52 -20 -39 -31 -149 -80 -180 -80 -15 0
-45 -12 -66 -26 -48 -31 -81 -29 -99 9 -26 54 -114 21 -93 -35 8 -22 17 -26
78 -31 79 -6 99 -13 107 -33 4 -9 -4 -18 -22 -25 -15 -6 -39 -16 -53 -24 -21
-10 -30 -10 -50 1 -49 27 -99 15 -99 -25 0 -14 -9 -37 -20 -51 -11 -14 -20
-34 -20 -46 0 -22 -25 -115 -40 -149 -13 -32 -33 -137 -31 -171 0 -18 -6 -37
-14 -44 -18 -15 -20 -80 -2 -103 8 -11 35 -18 92 -23 50 -4 87 -12 98 -22 15
-14 23 -14 53 -3 33 12 39 11 65 -8 15 -12 62 -32 104 -45 41 -13 92 -36 111
-51 23 -18 50 -28 76 -29 27 -2 46 -9 58 -23 9 -11 32 -24 51 -28 19 -4 40
-12 47 -18 7 -5 35 -9 63 -8 39 1 51 -2 56 -16 11 -30 24 -32 69 -10 50 24 60
50 39 100 -18 43 -8 76 29 100 31 21 32 36 6 87 -11 22 -20 41 -20 44 0 3 14
21 31 41 30 34 31 38 20 73 -6 20 -12 55 -13 77 -3 35 -7 41 -33 48 -16 5 -38
13 -47 18 -10 5 -32 9 -51 9 -18 0 -49 9 -70 20 -20 11 -47 20 -59 20 -13 0
-36 9 -53 20 -17 11 -47 20 -70 20 -46 0 -54 5 -77 41 -9 15 -29 30 -45 34
-30 7 -63 32 -63 48 0 5 25 8 59 5 45 -3 66 -10 91 -31 17 -15 44 -27 58 -27
15 -1 45 -9 67 -20 22 -11 56 -19 76 -20 20 0 42 -7 49 -15 7 -8 28 -15 46
-15 19 0 51 -9 71 -20 41 -22 61 -24 82 -11 12 8 12 14 1 40 -11 27 -17 31
-50 31 -21 0 -43 7 -50 15 -7 8 -25 15 -40 15 -15 0 -33 7 -40 15 -7 8 -28 17
-49 20 -20 3 -51 13 -69 22 -18 9 -51 16 -72 15 -39 -3 -43 0 -81 51 -19 25
-25 27 -64 21 -38 -5 -45 -3 -55 15 -18 34 -4 59 37 67 39 7 211 -9 358 -33
50 -8 115 -19 145 -24 30 -5 87 -12 125 -15 67 -6 72 -5 120 27 27 19 56 48
64 64 42 89 91 135 75 69 -6 -22 -3 -24 25 -24 20 0 49 13 81 36 40 29 55 34
80 29 16 -4 32 -10 35 -15 3 -4 -26 -34 -65 -67 -38 -32 -70 -64 -70 -72 0 -8
-11 -28 -24 -45 -12 -17 -26 -52 -30 -78 -7 -46 -6 -48 18 -48 39 0 56 10 56
35 0 12 10 30 21 41 12 10 25 28 28 38 4 10 22 24 40 30 25 8 36 20 46 48 7
21 27 53 44 73 23 27 31 45 31 74 0 71 64 95 114 42 16 -16 42 -35 60 -42 17
-7 67 -29 111 -50 44 -20 92 -40 107 -43 35 -8 110 4 106 16 -2 5 -30 20 -63
33 -34 14 -73 39 -90 59 -16 18 -38 36 -47 40 -31 10 -20 27 15 24 32 -3 32
-3 32 41 0 61 22 74 65 38 17 -15 37 -27 44 -27 6 0 26 -13 43 -28 17 -16 62
-44 99 -62 38 -18 77 -39 86 -48 29 -24 124 -9 170 28 20 17 40 30 43 30 4 0
21 12 38 26 25 21 37 24 66 19 20 -4 44 -14 54 -22 9 -9 19 -14 22 -11 5 4
-44 41 -194 146 -54 38 -84 52 -108 52 -37 0 -180 70 -242 119 -78 61 -110 65
-158 19 -27 -26 -35 -29 -48 -18 -8 7 -15 18 -15 25 0 7 -7 19 -16 26 -9 7
-20 24 -25 36 -20 53 -75 34 -65 -22 5 -23 1 -35 -14 -48 -13 -11 -20 -29 -20
-52 0 -51 -17 -49 -169 24 -60 29 -70 43 -46 63 44 37 45 39 35 59 -8 13 -21
19 -45 19 -19 0 -35 5 -35 10 0 12 -17 13 -22 1z m-49 -100 c17 -11 7 -41 -14
-41 -9 0 -15 9 -15 25 0 27 6 30 29 16z m67 -265 c52 -47 57 -55 45 -70 -7 -9
-19 -16 -25 -16 -21 1 -105 85 -112 113 -10 44 25 34 92 -27z"/>
<path d="M5035 2750 c-4 -7 4 -23 19 -38 25 -25 27 -26 43 -9 14 13 15 21 7
35 -13 20 -59 28 -69 12z"/>
<path d="M5222 2707 c-41 -42 -29 -57 49 -57 38 0 61 -5 69 -15 7 -8 18 -15
25 -15 6 0 58 -22 114 -50 124 -60 227 -96 304 -105 48 -6 57 -5 57 8 0 9 -10
22 -22 28 -13 7 -36 23 -52 36 -24 20 -37 24 -68 19 -28 -5 -46 -1 -70 14 -18
11 -44 20 -58 20 -14 0 -45 14 -69 30 -24 17 -49 30 -56 30 -7 0 -20 9 -30 20
-12 13 -31 20 -56 20 -25 0 -47 8 -67 25 -17 14 -32 25 -34 25 -2 0 -18 -15
-36 -33z"/>
<path d="M4994 2625 c-4 -8 2 -27 11 -42 18 -26 17 -27 -15 -53 -29 -24 -32
-31 -27 -59 6 -28 2 -37 -24 -60 -30 -28 -30 -29 -15 -59 21 -40 21 -39 -13
-57 -27 -13 -28 -17 -19 -43 9 -22 7 -35 -10 -68 -18 -35 -19 -44 -8 -59 8
-11 20 -16 29 -12 20 8 55 62 63 97 3 14 14 44 25 68 11 24 17 47 14 52 -3 5
2 24 11 42 10 18 21 49 25 68 4 19 17 61 29 92 21 54 22 59 6 83 -19 29 -73
35 -82 10z"/>
<path d="M5178 2573 c-21 -5 -32 -36 -23 -64 4 -13 1 -27 -10 -38 -8 -10 -19
-41 -24 -69 -4 -28 -15 -62 -24 -76 -10 -14 -17 -38 -17 -53 0 -16 -7 -38 -15
-50 -8 -12 -18 -48 -21 -81 -6 -52 -4 -62 15 -81 11 -11 31 -21 42 -21 12 0
36 -8 53 -19 17 -10 46 -19 65 -19 19 0 43 -9 55 -21 12 -12 32 -21 44 -21 11
0 23 -4 27 -9 3 -5 18 -12 35 -16 16 -3 41 -15 55 -26 18 -15 33 -19 53 -14
21 4 36 0 56 -16 37 -29 92 -20 109 19 7 15 20 34 31 43 17 14 17 19 5 52 -12
35 -12 38 15 66 23 24 26 34 21 63 -5 26 -1 40 15 61 17 22 20 35 15 66 -5 33
-3 40 20 55 36 24 30 56 -15 77 -19 9 -60 24 -90 34 -30 9 -100 39 -155 67
-180 89 -261 111 -337 91z"/>
<path d="M8900 2516 c0 -8 -13 -25 -30 -38 l-30 -22 22 -23 c12 -13 29 -23 39
-23 16 0 97 67 88 73 -2 1 -13 10 -24 18 -31 26 -65 33 -65 15z"/>
<path d="M7842 2458 c-7 -7 -12 -22 -12 -34 0 -13 -24 -51 -55 -88 -30 -35
-55 -71 -55 -79 0 -8 -7 -21 -16 -28 -20 -16 -54 -93 -54 -120 0 -20 2 -21
115 -62 104 -37 165 -57 210 -68 21 -6 44 -14 50 -19 7 -5 42 -21 79 -35 65
-25 127 -30 176 -16 25 8 27 12 15 42 -5 13 2 20 29 29 32 10 34 13 23 31 -10
18 -8 23 15 40 17 12 24 26 21 37 -2 10 3 24 11 31 9 8 16 22 16 32 0 10 11
26 25 35 20 13 23 19 14 36 -12 22 -12 21 19 37 13 7 22 21 22 34 0 28 -34 67
-58 67 -9 0 -36 9 -59 20 -39 17 -46 18 -78 5 -45 -19 -142 -19 -179 0 -15 8
-37 15 -49 15 -23 0 -123 45 -132 60 -9 14 -79 12 -93 -2z"/>
<path d="M6066 2445 c-7 -19 12 -62 30 -69 23 -9 44 5 44 29 0 41 -60 74 -74
40z"/>
<path d="M8420 2420 c0 -5 18 -10 40 -10 22 0 40 5 40 10 0 6 -18 10 -40 10
-22 0 -40 -4 -40 -10z"/>
<path d="M9042 2418 c-22 -22 -13 -48 21 -62 17 -8 67 -30 111 -50 43 -20 88
-36 100 -36 12 0 25 -9 31 -22 10 -22 61 -46 73 -34 12 12 -14 40 -44 48 -16
4 -40 18 -54 31 -61 57 -134 107 -154 107 -12 0 -31 7 -42 15 -23 18 -27 18
-42 3z"/>
<path d="M8804 2300 c-38 -15 -38 -30 0 -30 25 0 36 5 36 14 0 20 -11 25 -36
16z"/>
<path d="M6018 2265 c-25 -29 -27 -38 -22 -78 6 -40 3 -50 -21 -79 -24 -28
-26 -38 -21 -79 6 -44 5 -47 -20 -53 -22 -6 -25 -11 -19 -29 14 -40 8 -77 -15
-102 -21 -22 -22 -27 -10 -74 7 -28 17 -54 23 -58 15 -9 47 35 47 64 0 14 10
41 21 60 15 24 20 43 15 64 -4 20 1 45 14 74 11 24 20 61 20 82 1 21 7 49 15
63 8 14 14 37 15 51 0 15 9 38 20 52 23 29 25 48 8 65 -20 20 -41 13 -70 -23z"/>
<path d="M8950 2241 c0 -15 44 -38 87 -46 23 -3 47 -13 54 -21 6 -8 28 -14 48
-14 27 0 43 -7 59 -25 12 -14 28 -25 34 -25 7 0 38 -18 68 -40 30 -22 66 -45
80 -51 14 -6 38 -18 53 -26 16 -8 31 -12 34 -9 10 9 -85 96 -105 96 -10 0 -27
9 -38 21 -19 21 -85 59 -102 59 -5 0 -36 16 -68 35 -50 31 -64 35 -100 29 -30
-4 -45 -2 -57 10 -17 17 -47 22 -47 7z"/>
<path d="M8727 2213 c-9 -2 -26 -21 -36 -42 -11 -21 -27 -43 -35 -50 -9 -8
-16 -26 -16 -42 0 -22 -6 -30 -25 -35 -28 -7 -33 -22 -10 -30 25 -10 17 -31
-15 -43 -18 -6 -30 -17 -30 -27 0 -10 -9 -28 -21 -40 -20 -21 -20 -23 -4 -48
27 -40 26 -41 110 62 19 24 35 49 35 56 0 7 14 39 30 71 17 32 30 65 30 72 0
7 9 21 20 30 24 21 26 58 4 67 -9 3 -16 5 -17 5 -1 -1 -10 -3 -20 -6z"/>
<path d="M8850 2135 c-6 -15 -20 -40 -31 -56 -11 -15 -25 -43 -31 -61 -6 -18
-24 -48 -40 -66 -15 -18 -28 -41 -28 -50 0 -10 -6 -26 -13 -37 -18 -26 -28
-78 -18 -94 4 -6 34 -20 67 -30 52 -15 59 -20 62 -45 3 -26 5 -27 42 -21 33 6
40 3 50 -15 6 -12 28 -29 48 -39 50 -23 90 -47 175 -103 40 -26 82 -48 94 -48
24 0 73 53 73 80 0 10 16 37 35 60 19 23 35 50 35 60 0 11 5 22 10 25 6 3 10
14 10 24 0 10 11 28 25 41 14 13 25 32 25 42 0 9 11 25 25 34 24 15 24 17 9
43 -15 25 -141 113 -187 130 -12 5 -46 23 -75 40 -29 17 -59 31 -66 31 -7 0
-25 9 -39 20 -14 11 -39 20 -56 20 -18 0 -42 7 -56 16 -13 8 -48 18 -79 21
-54 6 -56 5 -66 -22z"/>
<path d="M4110 2052 c0 -32 5 -40 33 -55 17 -9 48 -20 67 -23 19 -4 44 -13 55
-21 11 -7 39 -13 63 -13 24 0 55 -6 70 -14 34 -17 113 -29 135 -20 42 16 7 75
-46 79 -20 2 -50 13 -66 24 -25 18 -38 20 -85 15 -44 -5 -60 -3 -74 9 -13 12
-128 56 -149 57 -2 0 -3 -17 -3 -38z"/>
<path d="M7380 1940 c-21 -13 0 -32 35 -32 35 0 56 19 35 32 -8 5 -24 10 -35
10 -11 0 -27 -5 -35 -10z"/>
<path d="M4110 1566 l0 -354 33 -7 c17 -4 64 -9 103 -12 l70 -4 27 40 c16 24
27 54 27 74 0 20 9 46 21 61 13 16 18 33 14 46 -4 13 1 31 14 49 12 16 26 52
31 80 5 29 14 60 20 71 5 10 10 35 10 55 0 22 8 47 20 62 11 14 20 34 20 44 0
23 -55 59 -90 59 -14 0 -45 9 -69 20 -24 11 -56 20 -71 20 -15 0 -58 11 -94
25 -37 14 -71 25 -76 25 -6 0 -10 -130 -10 -354z"/>
<path d="M7571 1896 c-10 -12 -9 -17 6 -24 38 -20 91 -32 159 -36 40 -2 85
-11 100 -19 16 -8 47 -18 69 -22 41 -7 69 -19 168 -75 48 -27 64 -31 97 -25
22 4 42 10 45 15 10 16 -88 89 -130 96 -22 3 -49 13 -60 20 -11 8 -42 14 -70
14 -28 0 -56 5 -61 10 -6 6 -46 15 -90 20 -43 5 -105 16 -137 25 -71 19 -81
19 -96 1z"/>
<path d="M4803 1893 c-7 -2 -13 -13 -13 -22 0 -24 36 -55 55 -48 21 9 19 40
-3 60 -20 18 -20 18 -39 10z"/>
<path d="M4957 1833 c-12 -12 -7 -41 10 -58 11 -12 25 -15 45 -11 29 6 36 3
145 -53 23 -11 50 -21 60 -21 10 0 28 -7 39 -15 12 -8 39 -19 60 -24 22 -5 71
-22 109 -36 130 -50 189 -44 140 13 -19 23 -38 33 -70 38 -24 3 -50 12 -56 20
-6 8 -18 14 -26 14 -14 0 -52 14 -193 74 -44 18 -88 30 -105 28 -21 -2 -37 3
-50 17 -13 15 -30 21 -60 21 -23 0 -45 -3 -48 -7z"/>
<path d="M7353 1823 c-37 -5 -42 -21 -17 -59 12 -18 14 -28 6 -36 -6 -6 -8
-23 -5 -38 4 -23 1 -29 -17 -35 -37 -12 -46 -48 -23 -92 23 -45 21 -59 -18
-95 -33 -30 -37 -63 -12 -90 15 -17 15 -21 0 -60 -18 -46 -12 -58 30 -58 30 0
43 28 43 90 0 28 7 61 15 73 8 13 17 56 19 99 2 42 9 85 14 95 5 10 13 52 17
93 3 41 11 80 17 87 5 7 7 17 3 23 -6 10 -12 10 -72 3z"/>
<path d="M7543 1792 c-8 -5 -12 -30 -10 -70 2 -69 15 -78 58 -41 14 12 31 18
44 15 11 -3 44 -6 73 -6 43 0 56 -4 74 -25 12 -14 31 -25 42 -25 34 -1 53 -23
63 -70 8 -41 11 -45 44 -50 19 -4 40 -9 46 -13 13 -8 37 18 29 32 -4 5 -20 12
-37 16 -26 6 -30 10 -25 31 5 19 1 27 -19 36 -15 7 -24 18 -23 27 5 21 83 18
107 -3 23 -20 56 -24 56 -6 0 8 -9 16 -20 18 -11 2 -29 12 -40 22 -11 9 -31
20 -45 23 -62 14 -118 30 -148 43 -18 8 -59 14 -91 14 -37 0 -75 7 -102 20
-49 22 -58 23 -76 12z"/>
<path d="M4751 1695 c-26 -30 -31 -44 -31 -88 0 -35 -7 -62 -20 -82 -11 -16
-20 -44 -20 -61 0 -18 -8 -38 -20 -49 -16 -14 -19 -26 -14 -55 5 -32 3 -40
-15 -49 -15 -9 -21 -21 -21 -48 0 -19 -9 -50 -20 -68 -18 -29 -18 -33 -4 -53
17 -24 46 -29 62 -9 5 6 17 35 26 62 96 304 116 374 116 401 0 16 7 39 15 50
18 23 19 56 3 72 -18 18 -23 16 -57 -23z"/>
<path d="M4918 1679 c-12 -7 -18 -23 -18 -47 -1 -20 -7 -48 -15 -62 -8 -14
-14 -43 -15 -65 0 -22 -6 -49 -13 -60 -22 -32 -96 -248 -103 -298 -4 -25 -4
-57 0 -71 6 -24 11 -26 50 -24 32 1 52 -5 71 -20 15 -12 32 -22 37 -22 6 0 21
-9 34 -19 14 -11 33 -17 45 -14 12 4 32 -3 49 -16 16 -11 43 -21 61 -21 17 0
42 -9 56 -20 14 -11 38 -20 53 -20 15 0 33 -7 40 -15 22 -27 85 -19 124 16 30
26 34 35 29 60 -4 22 0 36 16 52 15 17 20 34 18 62 -2 33 2 41 21 50 13 6 21
16 19 25 -9 29 -9 35 -8 62 0 16 13 38 28 52 24 22 25 28 15 51 -18 39 -15 59
13 85 61 58 20 86 -270 188 -16 6 -61 22 -100 36 -38 14 -85 26 -103 26 -19 0
-45 9 -59 20 -28 22 -49 25 -75 9z"/>
<path d="M7494 1615 l-19 -35 26 -23 c15 -12 29 -30 32 -39 7 -20 32 -24 42
-8 3 6 31 10 61 10 39 0 54 4 54 14 0 30 26 38 64 19 34 -16 37 -16 53 0 24
24 9 32 -53 30 -30 -2 -54 1 -54 6 0 5 -12 16 -26 26 -21 14 -31 15 -53 5 -21
-8 -34 -8 -54 1 -15 7 -27 16 -27 21 0 21 -29 4 -46 -27z"/>
<path d="M8087 1614 c-11 -11 3 -24 24 -24 12 0 19 5 17 13 -5 14 -31 21 -41
11z"/>
<path d="M8394 1608 c-4 -6 4 -21 20 -35 31 -27 36 -28 58 -10 28 21 6 57 -36
57 -19 0 -38 -5 -42 -12z"/>
<path d="M8556 1547 c-28 -20 -6 -52 56 -83 28 -14 58 -32 65 -39 7 -8 38 -25
68 -40 31 -14 58 -32 61 -40 10 -25 100 -75 189 -106 102 -34 107 -35 129 -10
26 28 4 67 -43 76 -42 8 -279 125 -341 168 -12 8 -28 13 -36 10 -8 -3 -27 6
-43 18 -82 67 -79 65 -105 46z"/>
<path d="M5832 1483 c2 -20 9 -29 26 -31 27 -4 29 18 4 41 -26 24 -34 21 -30
-10z"/>
<path d="M8374 1465 c-22 -33 -15 -38 32 -23 45 15 52 41 12 46 -20 2 -31 -4
-44 -23z"/>
<path d="M7840 1460 c0 -13 11 -13 30 0 12 8 11 10 -7 10 -13 0 -23 -4 -23
-10z"/>
<path d="M5983 1438 c-28 -14 -29 -22 -3 -48 12 -12 33 -20 54 -20 18 0 39 -6
45 -14 7 -8 27 -18 44 -22 18 -3 37 -10 42 -14 6 -4 34 -10 63 -13 29 -3 62
-13 74 -22 13 -8 43 -15 68 -15 35 0 57 -8 97 -35 29 -19 65 -35 80 -35 15 0
42 -9 58 -20 17 -11 41 -20 55 -20 14 -1 36 -7 50 -15 14 -8 40 -14 58 -15 17
0 49 -9 69 -20 40 -21 108 -27 118 -10 18 29 -134 115 -184 105 -14 -3 -38 4
-56 15 -18 11 -45 20 -61 20 -16 0 -40 9 -54 20 -14 11 -38 20 -54 20 -15 0
-54 16 -86 35 -36 22 -70 35 -92 35 -19 0 -43 7 -54 15 -10 8 -40 15 -66 15
-37 0 -50 4 -58 20 -9 17 -19 19 -66 17 -44 -2 -57 2 -65 16 -11 19 -42 21
-76 5z"/>
<path d="M7662 1430 c-9 -11 -31 -23 -49 -26 -39 -7 -48 -17 -29 -33 10 -8 21
-8 40 -1 40 15 51 13 85 -16 26 -21 38 -25 68 -20 25 4 48 1 67 -9 15 -8 38
-15 51 -15 12 0 34 -9 48 -20 37 -29 112 -28 138 3 23 28 23 29 -1 55 -14 14
-33 22 -55 22 -22 0 -39 7 -47 19 -10 14 -26 19 -66 19 -32 0 -59 5 -70 15
-10 8 -47 17 -90 20 -64 5 -75 4 -90 -13z"/>
<path d="M7465 1430 c-3 -5 5 -15 19 -21 20 -9 29 -9 41 1 8 7 12 16 9 21 -7
12 -61 11 -69 -1z"/>
<path d="M8553 1394 c-10 -26 11 -48 52 -55 28 -5 49 -19 82 -54 47 -52 52
-78 15 -83 -35 -5 -58 6 -44 20 17 17 15 48 -3 48 -9 0 -26 7 -40 16 -26 17
-107 11 -123 -10 -26 -32 -24 -58 4 -82 16 -13 37 -23 47 -24 16 0 77 -50 77
-64 0 -23 -78 7 -111 43 -24 25 -42 27 -64 5 -30 -30 6 -108 54 -119 15 -3 43
-21 60 -39 29 -30 32 -38 26 -68 -13 -61 -65 -90 -95 -53 -14 17 -36 20 -45 5
-15 -24 103 -130 144 -130 10 0 183 138 211 169 8 9 33 31 55 50 90 76 155
144 155 162 0 13 -20 28 -72 53 -40 18 -88 45 -107 60 -19 14 -39 26 -45 26
-5 0 -31 18 -57 40 -26 22 -52 40 -57 40 -5 0 -26 14 -47 30 -43 34 -63 38
-72 14z"/>
<path d="M5790 1335 c0 -25 -7 -43 -25 -59 -18 -17 -25 -35 -27 -75 -3 -41 -9
-56 -27 -70 -20 -15 -22 -21 -12 -39 16 -31 13 -57 -9 -77 -13 -11 -20 -31
-20 -52 0 -20 -9 -46 -21 -61 -13 -18 -18 -34 -14 -50 4 -16 0 -31 -11 -43
-14 -16 -15 -24 -6 -44 23 -49 74 -24 87 42 3 21 16 48 27 60 20 21 27 46 47
169 5 28 16 65 25 82 9 17 16 55 16 84 1 31 7 61 15 72 30 39 13 96 -27 96
-14 0 -18 -8 -18 -35z"/>
<path d="M8387 1364 c-14 -14 -7 -25 13 -22 12 2 21 8 21 13 0 12 -24 18 -34
9z"/>
<path d="M5937 1293 c-4 -3 -7 -25 -7 -48 0 -22 -5 -46 -12 -53 -6 -6 -15 -30
-19 -54 -18 -99 -46 -214 -57 -235 -7 -12 -12 -33 -12 -47 0 -13 -11 -38 -25
-54 -14 -17 -25 -42 -25 -60 0 -37 35 -82 63 -82 12 0 36 -9 52 -20 17 -11 47
-20 67 -20 20 0 52 -9 72 -20 27 -17 44 -20 84 -14 47 6 50 5 71 -24 18 -27
26 -30 55 -25 28 4 39 0 67 -26 29 -28 38 -31 71 -26 29 5 44 2 65 -13 16 -11
60 -28 98 -37 39 -9 85 -26 103 -36 34 -19 82 -24 117 -10 16 6 19 16 16 51
-2 39 1 47 30 71 32 26 33 28 16 46 -25 29 -21 61 13 93 34 32 37 46 14 78
-18 26 -8 46 28 58 17 5 20 12 15 44 -4 32 -1 43 19 61 31 29 30 50 -1 88 -19
22 -40 33 -82 41 -31 7 -64 16 -72 20 -22 12 -240 80 -255 80 -7 0 -33 13 -58
30 -26 18 -74 36 -117 45 -40 8 -81 20 -91 25 -10 6 -30 10 -45 10 -14 0 -39
7 -55 15 -17 9 -40 13 -53 10 -17 -5 -33 1 -54 19 -29 25 -81 35 -96 19z"/>
<path d="M7650 1249 c0 -24 23 -21 28 4 2 10 -3 17 -12 17 -10 0 -16 -9 -16
-21z"/>
<path d="M8328 1203 c21 -68 31 -77 53 -57 11 10 19 25 19 34 0 27 -39 70 -64
70 -23 0 -23 0 -8 -47z"/>
<path d="M7540 1220 c0 -5 12 -10 28 -9 24 0 25 1 7 9 -27 12 -35 12 -35 0z"/>
<path d="M7741 1210 c-13 -11 -34 -20 -47 -20 -50 0 -39 -25 29 -64 37 -22 50
-26 62 -16 7 6 33 10 56 8 35 -3 43 0 50 20 8 21 6 22 -49 22 -73 0 -93 11
-69 38 9 10 14 22 10 25 -10 10 -16 8 -42 -13z"/>
<path d="M7906 1191 c-4 -7 -5 -15 -2 -18 9 -9 19 4 14 18 -4 11 -6 11 -12 0z"/>
<path d="M7393 1023 c-25 -9 -13 -33 15 -33 16 0 37 -9 46 -19 10 -10 33 -22
52 -25 60 -12 37 -29 -67 -50 -55 -11 -43 -51 27 -92 16 -9 17 -14 6 -27 -15
-18 -8 -37 12 -37 23 0 37 -25 23 -39 -9 -10 -6 -17 16 -33 18 -13 26 -26 22
-38 -4 -12 3 -23 21 -35 19 -12 23 -20 15 -28 -17 -17 -13 -35 8 -42 25 -7 61
-76 61 -115 0 -19 8 -34 22 -44 22 -16 60 -21 71 -10 10 10 -15 68 -39 91 -15
14 -24 33 -24 51 0 33 -18 81 -61 163 -33 64 -36 87 -13 96 38 15 96 -48 151
-165 14 -31 35 -63 44 -70 15 -10 16 -18 8 -39 -22 -58 24 -108 76 -85 14 7
39 12 55 12 25 0 158 55 248 103 31 17 32 19 19 45 -8 15 -24 49 -38 76 -24
51 -87 106 -121 106 -40 0 -59 19 -56 56 4 46 -17 58 -252 143 -19 7 -51 16
-70 20 -19 4 -50 16 -69 25 -26 14 -47 17 -87 12 -38 -4 -55 -2 -63 8 -13 16
-40 25 -58 19z m512 -473 c0 -8 -10 -16 -22 -18 -22 -3 -32 16 -16 32 12 11
38 2 38 -14z"/>
<path d="M4110 924 l0 -43 53 -11 c70 -16 91 -11 95 22 4 34 -27 56 -97 67
l-51 8 0 -43z"/>
<path d="M7140 860 c0 -11 6 -20 13 -20 19 0 27 10 20 26 -8 21 -33 17 -33 -6z"/>
<path d="M4510 831 c-5 -11 -10 -24 -10 -30 0 -13 33 -23 54 -15 21 8 21 50 0
58 -25 10 -33 7 -44 -13z"/>
<path d="M4678 809 c-22 -12 -23 -42 -4 -62 14 -13 104 -47 271 -100 44 -15
129 -45 189 -67 78 -29 117 -39 137 -35 35 8 36 17 8 55 -16 20 -34 31 -63 35
-23 4 -48 13 -56 20 -8 7 -31 15 -51 19 -21 4 -42 13 -49 21 -7 8 -24 15 -39
15 -14 1 -37 7 -51 15 -14 8 -37 14 -51 15 -14 0 -34 7 -45 15 -10 8 -36 15
-56 15 -25 0 -46 8 -64 25 -29 27 -49 30 -76 14z"/>
<path d="M7128 788 c-32 -34 -34 -44 -12 -56 23 -13 9 -51 -22 -62 -27 -11
-32 -35 -9 -44 22 -8 19 -21 -16 -61 -28 -32 -30 -39 -24 -83 6 -43 3 -52 -19
-79 -29 -35 -33 -65 -11 -83 19 -16 19 -34 0 -50 -9 -8 -13 -21 -9 -36 4 -13
-1 -47 -11 -75 -11 -35 -13 -55 -6 -62 12 -12 103 4 154 27 18 7 54 20 80 26
57 15 117 44 128 62 4 7 25 17 46 23 30 8 39 16 41 35 4 39 -19 73 -56 82
l-33 9 21 26 c25 32 25 45 0 68 -14 12 -18 25 -14 41 4 17 2 24 -9 24 -20 0
-41 26 -27 35 18 11 11 31 -16 43 -18 9 -24 17 -19 31 4 13 -1 24 -16 34 -16
12 -20 22 -15 41 5 20 -2 33 -38 71 -24 25 -48 44 -53 44 -4 -1 -20 -15 -35
-31z"/>
<path d="M8253 730 c-29 -12 -30 -43 -3 -77 11 -14 20 -36 20 -48 0 -41 24
-49 65 -20 21 14 42 25 47 25 21 0 53 36 50 56 -3 23 -27 34 -73 34 -14 0 -34
9 -44 20 -20 22 -29 23 -62 10z"/>
<path d="M4459 661 c-30 -30 -37 -55 -19 -66 6 -4 8 -10 5 -15 -8 -13 44 -45
54 -34 15 15 28 99 20 122 -11 29 -25 28 -60 -7z"/>
<path d="M4625 634 c-8 -9 -13 -24 -10 -34 3 -10 -2 -34 -11 -53 -24 -51 -13
-81 36 -97 22 -7 40 -17 40 -21 0 -4 10 -11 23 -15 22 -7 149 -64 197 -89 14
-7 43 -18 65 -25 22 -7 45 -16 50 -20 6 -4 35 -15 65 -25 30 -10 65 -21 78
-26 17 -7 24 -5 28 6 3 8 15 17 26 21 17 5 19 12 13 54 -5 36 -3 54 9 73 28
42 12 59 -108 108 -39 16 -77 29 -84 29 -7 0 -34 8 -60 18 -73 29 -113 43
-167 56 -27 7 -74 23 -103 35 -63 25 -66 25 -87 5z"/>
<path d="M5545 490 c-4 -6 -4 -22 -1 -36 7 -28 43 -33 53 -8 12 32 -35 71 -52
44z"/>
<path d="M5698 439 c-30 -17 -21 -47 21 -75 22 -14 44 -23 50 -20 6 4 27 -2
48 -13 41 -20 110 -40 183 -50 25 -4 59 -14 75 -23 17 -9 42 -19 56 -22 14 -3
43 -19 63 -35 25 -20 54 -32 84 -36 26 -3 61 -10 77 -17 17 -6 53 -13 80 -16
28 -2 55 -9 62 -14 7 -5 27 -14 45 -18 18 -5 47 -14 64 -21 17 -7 42 -9 58 -5
23 6 27 11 24 37 -3 27 -10 34 -53 50 -27 10 -64 19 -80 19 -17 0 -42 8 -55
17 -16 11 -45 18 -79 18 -36 1 -57 6 -65 17 -6 8 -27 19 -46 23 -21 4 -49 21
-68 42 -30 32 -37 35 -73 29 -26 -4 -49 -1 -69 9 -16 8 -44 15 -62 15 -18 0
-57 11 -86 25 -30 14 -61 25 -70 25 -10 0 -44 11 -77 25 -66 27 -82 29 -107
14z"/>
<path d="M5476 307 c-29 -38 -31 -54 -14 -92 8 -18 8 -31 0 -49 -10 -22 -8
-24 26 -30 20 -3 38 -4 40 -2 2 2 7 28 11 58 4 29 13 63 21 75 11 17 11 27 2
47 -17 38 -55 34 -86 -7z"/>
<path d="M5656 264 c-3 -9 -6 -22 -6 -30 0 -8 -11 -37 -25 -66 -29 -59 -27
-63 49 -72 28 -4 80 -13 116 -21 136 -29 544 -57 587 -41 17 7 17 8 -1 22 -11
8 -39 14 -62 14 -30 0 -51 7 -77 29 -66 52 -383 143 -438 126 -16 -5 -28 0
-50 24 -31 35 -82 43 -93 15z"/>
</g>
</svg>
